# xmcd
#
# Track frame offsets: 
#        150
#        16812
#        38907
#        57760
#        79595
#        100379
#        119960
#        145875
#        156603
#        175975
#        203564
#        221082
#        236992
#        265907
#        284881
#        303191
#        327877
#
# Disc length: 4749 seconds
#
# Revision: 0
# Processed by: cddbd v1.5.2PL0 Copyright (c) Steve Scherf et al.
# Submitted via: ExactAudioCopy v1.3
#
DISCID=05128b11
DTITLE=Various Artist - Akella Presents - vol. 183 - Rockin' Blues  C
DTITLE=D2
DYEAR=2019
DGENRE=Blues
TTITLE0=Ron Evans Group - Train
TTITLE1=John Mayall - The Moon Is Full
TTITLE2=John Verity - Nothing But The Blues
TTITLE3=Bad Bob Bates - Cryin' Time
TTITLE4=Travellin' Blue Kings - Your Being
TTITLE5=Eric Street Band - Bring Back Our Song
TTITLE6=Alvaro Assmar and Mojo Blues Band - The Sky Is Crying
TTITLE7=Bill Wharton - Dirty Rice
TTITLE8=The Fleurieu Bluesbreakers - I Woke Up One Morning
TTITLE9=Big Mike Griffin - Don't Let Him Ride
TTITLE10=The BigBlue - Eileen
TTITLE11=Fathead - Monkey Time
TTITLE12=Vin Mott - The Factory
TTITLE13=Jack Butler's Jones - Get Back Blues
TTITLE14=Mick Kolassa - Blues Are All Around You
TTITLE15=Kerry Kearney - Creole Woman
TTITLE16=Blues Cousins - You Don't Know
EXTD=
EXTT0=
EXTT1=
EXTT2=
EXTT3=
EXTT4=
EXTT5=
EXTT6=
EXTT7=
EXTT8=
EXTT9=
EXTT10=
EXTT11=
EXTT12=
EXTT13=
EXTT14=
EXTT15=
EXTT16=
PLAYORDER=
